<svg id="visual" viewBox="0 0 960 300" width="960" height="300" xmlns="http://www.w3.org/2000/svg" xmlns:xlink="http://www.w3.org/1999/xlink" version="1.1"><rect x="0" y="0" width="960" height="300" fill="#f7f7f7"></rect><path d="M0 208L13.3 212C26.7 216 53.3 224 80 228C106.7 232 133.3 232 160 229.7C186.7 227.3 213.3 222.7 240 221.8C266.7 221 293.3 224 320 227.3C346.7 230.7 373.3 234.3 400 231.2C426.7 228 453.3 218 480 214.5C506.7 211 533.3 214 560 215C586.7 216 613.3 215 640 213.5C666.7 212 693.3 210 720 210.3C746.7 210.7 773.3 213.3 800 218.3C826.7 223.3 853.3 230.7 880 232.2C906.7 233.7 933.3 229.3 946.7 227.2L960 225L960 301L946.7 301C933.3 301 906.7 301 880 301C853.3 301 826.7 301 800 301C773.3 301 746.7 301 720 301C693.3 301 666.7 301 640 301C613.3 301 586.7 301 560 301C533.3 301 506.7 301 480 301C453.3 301 426.7 301 400 301C373.3 301 346.7 301 320 301C293.3 301 266.7 301 240 301C213.3 301 186.7 301 160 301C133.3 301 106.7 301 80 301C53.3 301 26.7 301 13.3 301L0 301Z" fill="#3b86f7"></path><path d="M0 237L13.3 234.5C26.7 232 53.3 227 80 228C106.7 229 133.3 236 160 237.7C186.7 239.3 213.3 235.7 240 233.8C266.7 232 293.3 232 320 233.2C346.7 234.3 373.3 236.7 400 239.5C426.7 242.3 453.3 245.7 480 243.3C506.7 241 533.3 233 560 231.8C586.7 230.7 613.3 236.3 640 240.5C666.7 244.7 693.3 247.3 720 244.5C746.7 241.7 773.3 233.3 800 229.7C826.7 226 853.3 227 880 227.8C906.7 228.7 933.3 229.3 946.7 229.7L960 230L960 301L946.7 301C933.3 301 906.7 301 880 301C853.3 301 826.7 301 800 301C773.3 301 746.7 301 720 301C693.3 301 666.7 301 640 301C613.3 301 586.7 301 560 301C533.3 301 506.7 301 480 301C453.3 301 426.7 301 400 301C373.3 301 346.7 301 320 301C293.3 301 266.7 301 240 301C213.3 301 186.7 301 160 301C133.3 301 106.7 301 80 301C53.3 301 26.7 301 13.3 301L0 301Z" fill="#80a2fa"></path><path d="M0 247L13.3 247.8C26.7 248.7 53.3 250.3 80 249.3C106.7 248.3 133.3 244.7 160 245C186.7 245.3 213.3 249.7 240 251.8C266.7 254 293.3 254 320 255.5C346.7 257 373.3 260 400 258.2C426.7 256.3 453.3 249.7 480 248.2C506.7 246.7 533.3 250.3 560 253.3C586.7 256.3 613.3 258.7 640 257.7C666.7 256.7 693.3 252.3 720 252.2C746.7 252 773.3 256 800 258.2C826.7 260.3 853.3 260.7 880 260.2C906.7 259.7 933.3 258.3 946.7 257.7L960 257L960 301L946.7 301C933.3 301 906.7 301 880 301C853.3 301 826.7 301 800 301C773.3 301 746.7 301 720 301C693.3 301 666.7 301 640 301C613.3 301 586.7 301 560 301C533.3 301 506.7 301 480 301C453.3 301 426.7 301 400 301C373.3 301 346.7 301 320 301C293.3 301 266.7 301 240 301C213.3 301 186.7 301 160 301C133.3 301 106.7 301 80 301C53.3 301 26.7 301 13.3 301L0 301Z" fill="#afc0fc"></path><path d="M0 269L13.3 266.7C26.7 264.3 53.3 259.7 80 259.8C106.7 260 133.3 265 160 268.2C186.7 271.3 213.3 272.7 240 270.2C266.7 267.7 293.3 261.3 320 260.7C346.7 260 373.3 265 400 266.2C426.7 267.3 453.3 264.7 480 262.5C506.7 260.3 533.3 258.7 560 258.5C586.7 258.3 613.3 259.7 640 259.5C666.7 259.3 693.3 257.7 720 258.5C746.7 259.3 773.3 262.7 800 263.5C826.7 264.3 853.3 262.7 880 263.5C906.7 264.3 933.3 267.7 946.7 269.3L960 271L960 301L946.7 301C933.3 301 906.7 301 880 301C853.3 301 826.7 301 800 301C773.3 301 746.7 301 720 301C693.3 301 666.7 301 640 301C613.3 301 586.7 301 560 301C533.3 301 506.7 301 480 301C453.3 301 426.7 301 400 301C373.3 301 346.7 301 320 301C293.3 301 266.7 301 240 301C213.3 301 186.7 301 160 301C133.3 301 106.7 301 80 301C53.3 301 26.7 301 13.3 301L0 301Z" fill="#d8dffe"></path><path d="M0 277L13.3 276.8C26.7 276.7 53.3 276.3 80 275.5C106.7 274.7 133.3 273.3 160 272.8C186.7 272.3 213.3 272.7 240 274.5C266.7 276.3 293.3 279.7 320 280C346.7 280.3 373.3 277.7 400 276.5C426.7 275.3 453.3 275.7 480 275.2C506.7 274.7 533.3 273.3 560 272.7C586.7 272 613.3 272 640 274C666.7 276 693.3 280 720 280.8C746.7 281.7 773.3 279.3 800 278.5C826.7 277.7 853.3 278.3 880 279C906.7 279.7 933.3 280.3 946.7 280.7L960 281L960 301L946.7 301C933.3 301 906.7 301 880 301C853.3 301 826.7 301 800 301C773.3 301 746.7 301 720 301C693.3 301 666.7 301 640 301C613.3 301 586.7 301 560 301C533.3 301 506.7 301 480 301C453.3 301 426.7 301 400 301C373.3 301 346.7 301 320 301C293.3 301 266.7 301 240 301C213.3 301 186.7 301 160 301C133.3 301 106.7 301 80 301C53.3 301 26.7 301 13.3 301L0 301Z" fill="#ffffff"></path></svg>