<svg id="visual" viewBox="0 0 960 300" width="960" height="300" xmlns="http://www.w3.org/2000/svg" xmlns:xlink="http://www.w3.org/1999/xlink" version="1.1"><rect x="0" y="0" width="960" height="300" fill="#ffffff"></rect><path d="M0 8L12.3 10.3C24.7 12.7 49.3 17.3 74 16.5C98.7 15.7 123.3 9.3 148 6.2C172.7 3 197.3 3 221.8 4.3C246.3 5.7 270.7 8.3 295.2 9.7C319.7 11 344.3 11 369 13C393.7 15 418.3 19 443 18.5C467.7 18 492.3 13 517 11.2C541.7 9.3 566.3 10.7 591 10.5C615.7 10.3 640.3 8.7 664.8 9.3C689.3 10 713.7 13 738.2 15.7C762.7 18.3 787.3 20.7 812 20.7C836.7 20.7 861.3 18.3 886 16C910.7 13.7 935.3 11.3 947.7 10.2L960 9L960 0L947.7 0C935.3 0 910.7 0 886 0C861.3 0 836.7 0 812 0C787.3 0 762.7 0 738.2 0C713.7 0 689.3 0 664.8 0C640.3 0 615.7 0 591 0C566.3 0 541.7 0 517 0C492.3 0 467.7 0 443 0C418.3 0 393.7 0 369 0C344.3 0 319.7 0 295.2 0C270.7 0 246.3 0 221.8 0C197.3 0 172.7 0 148 0C123.3 0 98.7 0 74 0C49.3 0 24.7 0 12.3 0L0 0Z" fill="#f7f7f7" stroke-linecap="round" stroke-linejoin="miter"></path></svg>