<svg id="visual" viewBox="0 0 960 300" width="960" height="300" xmlns="http://www.w3.org/2000/svg" xmlns:xlink="http://www.w3.org/1999/xlink" version="1.1"><rect x="0" y="0" width="960" height="300" fill="#ffffff"></rect><path d="M0 290L9.3 288.3C18.7 286.7 37.3 283.3 56.2 282.7C75 282 94 284 112.8 285.8C131.7 287.7 150.3 289.3 169.2 289.7C188 290 207 289 225.8 287C244.7 285 263.3 282 282.2 280.8C301 279.7 320 280.3 338.8 281.2C357.7 282 376.3 283 395.2 283.3C414 283.7 433 283.3 451.8 283.7C470.7 284 489.3 285 508.2 284.3C527 283.7 546 281.3 564.8 280.2C583.7 279 602.3 279 621.2 279.7C640 280.3 659 281.7 677.8 283C696.7 284.3 715.3 285.7 734.2 286.7C753 287.7 772 288.3 790.8 286.8C809.7 285.3 828.3 281.7 847.2 282C866 282.3 885 286.7 903.8 288C922.7 289.3 941.3 287.7 950.7 286.8L960 286L960 301L950.7 301C941.3 301 922.7 301 903.8 301C885 301 866 301 847.2 301C828.3 301 809.7 301 790.8 301C772 301 753 301 734.2 301C715.3 301 696.7 301 677.8 301C659 301 640 301 621.2 301C602.3 301 583.7 301 564.8 301C546 301 527 301 508.2 301C489.3 301 470.7 301 451.8 301C433 301 414 301 395.2 301C376.3 301 357.7 301 338.8 301C320 301 301 301 282.2 301C263.3 301 244.7 301 225.8 301C207 301 188 301 169.2 301C150.3 301 131.7 301 112.8 301C94 301 75 301 56.2 301C37.3 301 18.7 301 9.3 301L0 301Z" fill="#f7f7f7" stroke-linecap="round" stroke-linejoin="miter"></path></svg>